<?xml version="1.0" encoding="UTF-8" standalone="no"?>
<!DOCTYPE svg PUBLIC "-//W3C//DTD SVG 1.1//EN" "http://www.w3.org/Graphics/SVG/1.1/DTD/svg11.dtd">
<svg width="100%" height="100%" viewBox="0 0 48 48" version="1.1" xmlns="http://www.w3.org/2000/svg" xmlns:xlink="http://www.w3.org/1999/xlink" xml:space="preserve" xmlns:serif="http://www.serif.com/" style="fill-rule:evenodd;clip-rule:evenodd;stroke-linejoin:round;stroke-miterlimit:2;">
    <g transform="matrix(1,0,0,1,0,-56)">
        <g id="arpeggio-down" transform="matrix(1,0,0,1,0,56)">
            <rect x="0" y="0" width="48" height="48" style="fill:none;"/>
            <g transform="matrix(1.25,0,0,1.06452,-6,-62.871)">
                <path d="M22.292,60C21.934,60 21.597,60.196 21.38,60.529C21.163,60.863 21.092,61.297 21.186,61.702C21.187,61.702 21.187,61.703 21.188,61.704C21.403,62.624 22,63.014 22,65C22,65.871 21.671,66.449 21.381,67.03C20.945,67.903 20.52,68.773 20.261,69.823C20.1,70.475 20,71.188 20,72C20,72.812 20.1,73.525 20.261,74.177C20.52,75.227 20.945,76.097 21.381,76.97C21.671,77.551 22,78.129 22,79C22,79.871 21.671,80.449 21.381,81.03C20.945,81.903 20.52,82.773 20.261,83.823C20.1,84.475 20,85.188 20,86C20,86.833 20.063,87.491 20.155,88.035C20.3,88.893 20.515,89.495 20.733,90.036C20.848,90.32 21,90.543 21,91L27,91C27,90.315 26.924,89.772 26.812,89.296C26.597,88.376 26,87.986 26,86C26,85.129 26.329,84.551 26.619,83.97C27.055,83.097 27.48,82.227 27.739,81.177C27.9,80.525 28,79.812 28,79C28,78.188 27.9,77.475 27.739,76.823C27.48,75.773 27.055,74.903 26.619,74.03C26.329,73.449 26,72.871 26,72C26,71.129 26.329,70.551 26.619,69.97C27.055,69.097 27.48,68.227 27.739,67.177C27.9,66.525 28,65.812 28,65C28,64.167 27.937,63.509 27.845,62.965C27.7,62.107 27.485,61.505 27.267,60.964C27.266,60.963 27.266,60.962 27.266,60.962C27.028,60.374 26.524,60 25.971,60C24.953,60 23.392,60 22.292,60Z"/>
            </g>
            <g transform="matrix(7.99422e-17,1.30556,-0.789474,4.83413e-17,42.1579,-8.13889)">
                <clipPath id="_clip1">
                    <rect x="31.511" y="4" width="11.489" height="38"/>
                </clipPath>
                <g clip-path="url(#_clip1)">
                    <path d="M8.532,29.333C8.126,29.333 7.736,29.066 7.449,28.591C7.161,28.116 7,27.472 7,26.8C7,24.592 7,21.408 7,19.2C7,18.528 7.161,17.884 7.449,17.409C7.736,16.934 8.126,16.667 8.532,16.667C13.896,16.667 31.511,16.667 31.511,16.667L31.511,10.116C31.511,9.091 31.884,8.168 32.456,7.776C33.029,7.383 33.688,7.6 34.126,8.325C36.585,12.392 40.147,18.281 41.917,21.209C42.515,22.198 42.515,23.802 41.917,24.791C40.147,27.719 36.585,33.608 34.126,37.675C33.688,38.4 33.029,38.617 32.456,38.224C31.884,37.832 31.511,36.909 31.511,35.884C31.511,32.647 31.511,29.333 31.511,29.333L8.532,29.333Z"/>
                </g>
            </g>
        </g>
    </g>
</svg>
