<?xml version="1.0" encoding="UTF-8" standalone="no"?>
<!DOCTYPE svg PUBLIC "-//W3C//DTD SVG 1.1//EN" "http://www.w3.org/Graphics/SVG/1.1/DTD/svg11.dtd">
<svg width="100%" height="100%" viewBox="0 0 48 48" version="1.1" xmlns="http://www.w3.org/2000/svg" xmlns:xlink="http://www.w3.org/1999/xlink" xml:space="preserve" xmlns:serif="http://www.serif.com/" style="fill-rule:evenodd;clip-rule:evenodd;stroke-linejoin:round;stroke-miterlimit:2;">
    <rect id="down-strum" x="0" y="0" width="48" height="48" style="fill:none;"/>
    <g id="down-strum1" serif:id="down-strum">
        <g transform="matrix(7.99422e-17,1.30556,-0.789474,4.83413e-17,42.1579,-8.13889)">
            <path d="M8.532,29.333C8.126,29.333 7.736,29.066 7.449,28.591C7.161,28.116 7,27.472 7,26.8C7,24.592 7,21.408 7,19.2C7,18.528 7.161,17.884 7.449,17.409C7.736,16.934 8.126,16.667 8.532,16.667C13.896,16.667 31.511,16.667 31.511,16.667L31.511,10.116C31.511,9.091 31.884,8.168 32.456,7.776C33.029,7.383 33.688,7.6 34.126,8.325C36.585,12.392 40.147,18.281 41.917,21.209C42.515,22.198 42.515,23.802 41.917,24.791C40.147,27.719 36.585,33.608 34.126,37.675C33.688,38.4 33.029,38.617 32.456,38.224C31.884,37.832 31.511,36.909 31.511,35.884C31.511,32.647 31.511,29.333 31.511,29.333L8.532,29.333Z"/>
        </g>
    </g>
</svg>
