<?xml version="1.0" encoding="UTF-8" standalone="no"?>
<!DOCTYPE svg PUBLIC "-//W3C//DTD SVG 1.1//EN" "http://www.w3.org/Graphics/SVG/1.1/DTD/svg11.dtd">
<svg width="100%" height="100%" viewBox="0 0 48 48" version="1.1" xmlns="http://www.w3.org/2000/svg" xmlns:xlink="http://www.w3.org/1999/xlink" xml:space="preserve" xmlns:serif="http://www.serif.com/" style="fill-rule:evenodd;clip-rule:evenodd;stroke-linejoin:round;stroke-miterlimit:2;">
    <g transform="matrix(1,0,0,1,0,-112)">
        <g id="tremolo" transform="matrix(1,0,0,1,0,112)">
            <rect x="0" y="0" width="48" height="48" style="fill:none;"/>
            <g transform="matrix(1.5,-0.5,0,2,-12,-228)">
                <path d="M32,124.694C32,124.533 31.897,124.356 31.723,124.219C31.549,124.081 31.326,124 31.123,124C28.169,124 18.653,124 16.456,124C16.184,124 16,124.145 16,124.36C16,125.024 16,126.449 16,127.306C16,127.467 16.103,127.644 16.277,127.781C16.451,127.919 16.674,128 16.877,128C19.831,128 29.347,128 31.544,128C31.816,128 32,127.855 32,127.64C32,126.976 32,125.551 32,124.694Z"/>
            </g>
            <g transform="matrix(1.5,-0.5,0,2,-12,-232)">
                <path d="M32,132.694C32,132.533 31.897,132.356 31.723,132.219C31.549,132.081 31.326,132 31.123,132C28.169,132 18.653,132 16.456,132C16.184,132 16,132.145 16,132.36C16,133.024 16,134.449 16,135.306C16,135.467 16.103,135.644 16.277,135.781C16.451,135.919 16.674,136 16.877,136C19.831,136 29.347,136 31.544,136C31.816,136 32,135.855 32,135.64C32,134.976 32,133.551 32,132.694Z"/>
            </g>
            <g transform="matrix(1.5,-0.5,0,2,-12,-236)">
                <path d="M32,140.694C32,140.533 31.897,140.356 31.723,140.219C31.549,140.081 31.326,140 31.123,140C28.169,140 18.653,140 16.456,140C16.184,140 16,140.145 16,140.36C16,141.024 16,142.449 16,143.306C16,143.467 16.103,143.644 16.277,143.781C16.451,143.919 16.674,144 16.877,144C19.831,144 29.347,144 31.544,144C31.816,144 32,143.855 32,143.64C32,142.976 32,141.551 32,140.694Z"/>
            </g>
        </g>
    </g>
</svg>
